<?xml version="1.0" standalone="no"?>
<!DOCTYPE svg PUBLIC "-//W3C//DTD SVG 20010904//EN"
 "http://www.w3.org/TR/2001/REC-SVG-20010904/DTD/svg10.dtd">
<svg version="1.0" xmlns="http://www.w3.org/2000/svg"
 width="112.000000pt" height="112.000000pt" viewBox="0 0 112.000000 112.000000"
 preserveAspectRatio="xMidYMid meet">
<metadata>
Created by potrace 1.11, written by Peter Selinger 2001-2013
</metadata>
<g transform="translate(0.000000,112.000000) scale(0.100000,-0.100000)"
fill="#000000" stroke="none">
<path d="M420 1094 c-207 -54 -371 -227 -411 -432 -45 -235 79 -490 291 -597
157 -79 353 -80 510 0 221 112 343 376 285 617 -48 202 -206 361 -410 413 -73
19 -192 18 -265 -1z m313 -84 c129 -49 246 -174 287 -306 27 -90 27 -213 -1
-296 -66 -195 -258 -338 -455 -338 l-34 0 0 114 0 113 44 5 c88 10 174 72 217
156 35 69 34 187 -3 257 -45 85 -120 139 -210 151 l-48 7 0 85 0 85 73 -5 c39
-3 98 -15 130 -28z m-265 -312 l-3 -333 -60 -5 c-56 -5 -60 -7 -60 -30 0 -24
3 -25 63 -28 l62 -3 0 -111 0 -110 -32 6 c-161 32 -323 199 -359 368 -16 75
-6 212 20 280 29 75 99 168 162 214 55 40 151 83 187 84 l22 0 -2 -332z m155
86 c118 -60 162 -193 100 -306 -31 -57 -106 -108 -160 -108 l-33 0 0 215 0
215 30 0 c17 0 45 -7 63 -16z"/>
</g>
</svg>
